<svg width="102" height="20" fill="none" xmlns="http://www.w3.org/2000/svg"><path d="M1.79 17.494a7.25 7.25 0 01-1.206-4.51V6.469a7.365 7.365 0 011.189-4.553C2.57.878 3.935.362 5.864.368c1.93.006 3.236.46 3.92 1.364a5.875 5.875 0 011.145 3.902v1.53H7.363v-1.66A8.764 8.764 0 007.251 4.2a1.465 1.465 0 00-.405-.825 1.34 1.34 0 00-.99-.322 1.248 1.248 0 00-1.292.652 4.79 4.79 0 00-.293 1.911v8.273c-.04.655.076 1.31.336 1.911a1.265 1.265 0 001.249.634c.242.035.49-.009.706-.124.216-.115.391-.297.5-.519a5.115 5.115 0 00.267-1.902V12.15h3.566v1.503a6.342 6.342 0 01-1.06 4.006c-.758.955-2.067 1.425-3.928 1.425-1.86 0-3.316-.522-4.117-1.59zM15.788.62h4.083l3.446 18.247h-3.394l-.612-4.031h-2.86l-.689 4.005h-3.445L15.788.621zm3.144 11.922l-1.085-7.334-1.077 7.334h2.162zM25.962 3.366H23.17V.62h9.234v2.746h-2.757V18.84h-3.695l.009-15.475z" fill="#111"/><path d="M39.65.62h7.003v1.894h-4.48v6.022h3.636v1.799h-3.635v6.682h4.522v1.824H39.65V.621zM48.73.62h1.722l5.168 12.104V.62h2.102v18.247h-1.61L50.942 6.424v12.417h-2.136L48.729.621zM60.505.62h6.994v1.894H63.02v6.022h3.67v1.799h-3.635v6.682h4.496v1.824h-7.046V.621zM69.576.62h3.635a5.992 5.992 0 014.023 1.138c.86.756 1.283 1.99 1.283 3.702 0 2.317-.744 3.733-2.231 4.249l2.584 9.132h-2.446l-2.369-8.55H72.1v8.55h-2.524V.621zm3.445 7.82c.83.081 1.66-.154 2.326-.66a3.111 3.111 0 00.706-2.355 5.124 5.124 0 00-.25-1.738 1.645 1.645 0 00-.86-.938 4.068 4.068 0 00-1.767-.304h-1.11v6.03l.955-.035zM81.911 17.494a8.093 8.093 0 01-1.094-4.648V6.763a11.83 11.83 0 01.431-3.475 3.892 3.892 0 011.499-2.094 5.056 5.056 0 012.894-.73c.657-.063 1.32.02 1.941.241a4.525 4.525 0 011.66 1.045 6.121 6.121 0 011.102 4.023v.678h-2.368v-.565a10.058 10.058 0 00-.156-2.016 1.74 1.74 0 00-.654-1.069 2.566 2.566 0 00-1.482-.356 2.158 2.158 0 00-1.559.486c-.357.342-.59.795-.663 1.286-.11.716-.158 1.44-.147 2.164v6.769a6.577 6.577 0 00.509 3.006 2.441 2.441 0 001.944.912 2.422 2.422 0 001.906-.99 7.102 7.102 0 00.525-3.171V11.62h-2.29V9.822h4.565v9.02h-1.56l-.25-2.095a3.206 3.206 0 01-1.205 1.725 3.158 3.158 0 01-2.007.595 3.982 3.982 0 01-1.97-.328 4.02 4.02 0 01-1.57-1.245zM95.711 12.411L91.81.621h2.343l2.765 8.793L99.64.62h2.369l-3.876 11.791v6.43H95.72l-.009-6.43z" fill="#444"/></svg>