<svg xmlns="http://www.w3.org/2000/svg" xmlns:xlink="http://www.w3.org/1999/xlink"><symbol id="tg"><g fill="none"><path fill="currentColor" fill-rule="evenodd" clip-rule="evenodd" d="M23.46 3.153c.18.15.265.382.227.611l-2.626 15.757a.657.657 0 01-1.012.439l-7.878-5.253a.657.657 0 01-.149-.956l2.611-3.263-4.36 2.906a.657.657 0 01-.658.041L4.363 10.81a.657.657 0 01.073-1.205l18.383-6.566a.657.657 0 01.642.115zm-17.134 7.17l3.536 1.768 7.561-5.041a.656.656 0 01.877.956l-4.805 6.006 6.438 4.292L22.208 4.65 6.326 10.323z"/></g></symbol><symbol id="vk"><g fill="none"><path fill="currentColor" d="M1 5.339c0-.855.515-1.316 1.545-1.383l3.97.025a.52.52 0 01.533.377c.409 1.257.866 2.343 1.372 3.257.506.913 1.168 1.965 1.985 3.156.071.15.187.226.346.226.125 0 .223-.059.293-.176l.08-.277.027-4.35c0-.302-.075-.503-.226-.604-.151-.1-.431-.176-.84-.226-.32-.05-.48-.235-.48-.553 0-.067.01-.118.027-.151.373-1.09 1.44-1.635 3.198-1.635L14.322 3c.675 0 1.234.16 1.678.478.444.318.666.821.666 1.509v5.708c.125.084.24.126.347.126.266 0 .497-.15.692-.453 1.954-2.582 3.011-4.308 3.17-5.18 0-.017.019-.059.054-.126.125-.251.329-.47.613-.654.284-.184.533-.31.746-.377a.554.554 0 01.24-.05h4.13l.266.025c.355 0 .63.16.826.478.07.1.12.21.146.327.027.117.045.234.054.352.009.117.013.184.013.2v.177c-.124.687-.44 1.42-.946 2.2-.506.78-1.15 1.622-1.931 2.528-.782.905-1.27 1.5-1.466 1.785-.16.201-.24.386-.24.553 0 .135.071.286.213.453l3.89 4.627c.213.269.32.562.32.88 0 .386-.16.705-.48.956-.32.252-.701.394-1.145.428l-.453.025h-4.05a.855.855 0 00-.106.012.862.862 0 01-.107.013c-.39 0-.755-.16-1.092-.478-.125-.134-.96-1.123-2.505-2.967a1.387 1.387 0 00-.373-.327c-.07.268-.164.654-.28 1.157-.115.503-.2.863-.253 1.081l-.08.427c-.177.587-.55.94-1.119 1.057l-.373.025h-2.61c-1.475 0-2.945-.637-4.41-1.911-1.466-1.275-2.784-2.922-3.957-4.942-1.172-2.02-2.264-4.372-3.277-7.054A1.916 1.916 0 011 5.338zm16.013 6.513c-.373 0-.71-.096-1.013-.29-.302-.192-.453-.456-.453-.791V4.987c0-.336-.089-.575-.266-.717-.178-.143-.489-.214-.933-.214l-1.518.05c-.764 0-1.341.126-1.732.378.781.352 1.172.922 1.172 1.71v4.426a1.5 1.5 0 01-.533 1.044 1.59 1.59 0 01-1.066.414c-.532 0-.94-.243-1.225-.729C8.06 9.371 7.03 7.493 6.356 5.716l-.24-.654-3.544-.025c-.231 0-.36.013-.386.038-.027.025-.04.096-.04.213 0 .151.017.31.053.478l.56 1.409c1.491 3.638 3.112 6.505 4.862 8.6 1.75 2.096 3.468 3.144 5.155 3.144h2.665c.106 0 .186-.03.24-.088.053-.06.097-.172.133-.34l.053-.251.506-2.213c.142-.302.267-.503.373-.604a.975.975 0 01.693-.277c.426 0 .861.243 1.305.73l2.265 2.716c.142.218.293.327.453.327h4.396c.533 0 .8-.126.8-.378a.466.466 0 00-.08-.251l-3.864-4.552c-.302-.352-.453-.73-.453-1.131 0-.403.142-.788.427-1.157.23-.336.679-.893 1.345-1.673a37.63 37.63 0 001.745-2.187c.498-.68.826-1.296.986-1.849l.08-.327a.371.371 0 01-.027-.163.574.574 0 00-.026-.189h-4.183c-.267.1-.48.252-.64.453l-.16.478c-.444 1.156-1.607 2.942-3.49 5.356a1.892 1.892 0 01-1.305.503z"/></g></symbol><symbol id="yt"><g fill="none"><path fill="currentColor" d="M17.85 10.793l-5.236-3.491a.655.655 0 00-1.014.545v6.982a.654.654 0 001.014.546l5.237-3.491a.655.655 0 000-1.091zm-4.94 2.814V9.07l3.403 2.27-3.404 2.268zm12.48-8.563a2.4 2.4 0 00-1.452-1.637C20.218 1.978 14.251 2 14 2c-.25 0-6.218-.022-9.938 1.407A2.4 2.4 0 002.61 5.044C2.327 6.113 2 8.076 2 11.338c0 3.262.327 5.226.61 6.295a2.4 2.4 0 001.452 1.636c3.72 1.43 9.687 1.407 9.938 1.407h.076c.753 0 6.317-.043 9.862-1.407a2.4 2.4 0 001.451-1.636c.284-1.07.611-3.033.611-6.295s-.327-5.225-.61-6.294zm-1.266 12.261a1.09 1.09 0 01-.655.742c-3.49 1.342-9.404 1.32-9.469 1.32-.066 0-5.978.022-9.47-1.32a1.09 1.09 0 01-.654-.742c-.261-1.003-.567-2.847-.567-5.967 0-3.12.306-4.963.567-5.967a1.09 1.09 0 01.655-.742C8.02 3.287 13.935 3.31 14 3.31c.066 0 5.978-.022 9.47 1.32a1.092 1.092 0 01.654.742c.262 1.004.567 2.847.567 5.967 0 3.12-.305 4.964-.567 5.967z"/></g></symbol><symbol id="icon_arrow"><g fill="none"><path stroke="currentColor" stroke-width="2" d="M0 6h18"/><path fill="currentColor" d="M24 6l-6.75 5.196V.804L24 6z"/></g></symbol><symbol id="email"><g fill="none"><path stroke="currentColor" stroke-width="1.3" d="M1.179 6v8M18.179 6v8M.529 13.35h18M.529 1.35h18M17.88 3.182L9.53 9.677 1.18 3.182V1.65h16.7v1.532z"/></g></symbol><symbol id="phone"><g fill="none"><path fill="currentColor" d="M17.9 9.4H9.4v1.2h8.5l-2.1 2.1.9.9 3.1-3.1a.75.75 0 000-.9l-3.1-3.1-.9.9 2.1 2zM8.1 19.4v-6.2a.65.65 0 00-.6-.6H3.1a1.22 1.22 0 001.2 1.2h2.5v5H3.1a1.789 1.789 0 01-1.9-1.7v-14a1.77 1.77 0 011.7-1.8h3.9v5H4.4a1.22 1.22 0 00-1.2 1.2h4.4a.65.65 0 00.6-.6V.6a.86.86 0 00-.7-.6H3.1A3 3 0 000 2.9v13.9a2.89 2.89 0 002.9 3.1h4.6a.5.5 0 00.6-.5z"/></g></symbol><symbol id="catenergy"><g fill="currentColor"><path d="M1.603 22.051A9.498 9.498 0 010 16.308V7.795a9.63 9.63 0 011.502-5.846C2.604.615 4.307 0 6.811 0s4.106.615 5.108 1.744a7.487 7.487 0 011.502 5.025v2.052H8.513V6.46a5.157 5.157 0 00-.3-2.05 1.463 1.463 0 00-.579-.63 1.415 1.415 0 00-.823-.191c-.701 0-1.202.205-1.403.718a6.774 6.774 0 00-.3 2.256v10.974a4.334 4.334 0 00.4 2.154c.2.513.702.718 1.403.718.7 0 1.102-.205 1.302-.718.228-.693.33-1.423.3-2.154v-2.461h4.908v2.051a7.98 7.98 0 01-1.502 5.128c-1.002 1.231-2.705 1.847-5.108 1.847-2.404-.103-4.207-.718-5.208-2.052zM19.33.308h5.71l4.206 23.384h-4.607l-.802-4.923h-3.305l-.801 4.923h-4.708L19.33.308zm4.107 15.384l-1.202-9.128-1.202 9.128h2.404zM32.751 4.205h-3.405V.308h11.918v3.794H37.86v19.59h-5.108V4.205zM50.379.308h8.814v2.461h-5.71v7.692h4.608v2.36h-4.607v8.615h5.709v2.359h-8.914V.308h.1zM61.797.308H64l6.51 15.487V.308h2.604v23.384h-2.003l-6.61-16v16h-2.705V.308zM76.119.308h8.814v2.461h-5.71v7.692h4.608v2.36h-4.607v8.615h5.709v2.359h-8.814V.308zM87.537.308h4.607a7.874 7.874 0 015.108 1.436c1.102.923 1.603 2.564 1.603 4.717 0 2.975-.902 4.821-2.805 5.436l3.205 11.693H96.15l-3.004-10.975h-2.504V23.59h-3.205V.308h.1zm4.407 10.05a4.301 4.301 0 002.904-.82c.601-.512.902-1.538.902-3.077a6.775 6.775 0 00-.3-2.256 2.583 2.583 0 00-1.103-1.23 4.473 4.473 0 00-2.203-.411h-1.402v7.692h1.202v.103zM102.861 21.949a10.575 10.575 0 01-1.403-5.95V8.206c-.024-1.486.144-2.97.501-4.41a5.204 5.204 0 011.903-2.667 6.421 6.421 0 013.706-.923c2.103 0 3.606.513 4.507 1.641a7.982 7.982 0 011.402 5.128v.82h-3.004v-.717a15.503 15.503 0 00-.201-2.564 2.056 2.056 0 00-.801-1.334 3.04 3.04 0 00-1.903-.512 2.955 2.955 0 00-2.003.615 2.349 2.349 0 00-.801 1.641 19.734 19.734 0 00-.201 2.77v8.717a9.527 9.527 0 00.601 3.898c.401.82 1.202 1.128 2.404 1.128.475.06.956-.024 1.384-.243a2.457 2.457 0 001.02-.988 9.635 9.635 0 00.701-4.102V14.46h-2.905v-2.359h5.809v11.59h-2.003l-.3-2.666a4.186 4.186 0 01-1.554 2.21 4.016 4.016 0 01-2.553.764 4.907 4.907 0 01-2.406-.47 5.037 5.037 0 01-1.9-1.581zM119.988 15.487L115.08.41h3.005l3.505 11.282L124.995.41H128l-4.908 15.077v8.205h-3.004v-8.205h-.1z"/></g></symbol><symbol id="htmlacademy"><g fill="none"><path fill="currentColor" d="M13.643.016L13.5 0 0 1.407v24.606L13.5 34 27 26.013V1.407L13.643.016zm11.591 25L13.5 31.956 1.766 25.015V14.93l11.685 6.916.02 1.253-8.017-4.743-.011 1.225 8.046 4.809.02 1.286-8.045-4.758-.01 1.226L13.5 26.95l8.124-4.833V16.91l3.62-2.15-.01 10.256zm0-11.564l-3.22 1.88-1.482.875-7.065-4.187-.011 1.225 6.04 3.573-.053.031-.13.076-.86.492-4.986-2.948-.011 1.225 3.936 2.328-.933.61-.021.012-2.971-1.742-.011 1.225 1.947 1.135-1.988 1.186-11.618-6.872 11.638-6.958 11.8 6.834zm0-1.225L13.44 5.31 1.766 12.22V2.99L13.5 1.764 25.234 2.99v9.237z"/></g></symbol></svg>